<?xml version="1.0" standalone="no"?>
<!DOCTYPE svg PUBLIC "-//W3C//DTD SVG 20010904//EN"
 "http://www.w3.org/TR/2001/REC-SVG-20010904/DTD/svg10.dtd">
<svg version="1.0" xmlns="http://www.w3.org/2000/svg"
 width="200.000000pt" height="200.000000pt" viewBox="0 0 200.000000 200.000000"
 preserveAspectRatio="xMidYMid meet">
<metadata>
Created by potrace 1.11, written by Peter Selinger 2001-2013
</metadata>
<g transform="translate(0.000000,200.000000) scale(0.100000,-0.100000)"
fill="#000000" stroke="none">
<path d="M0 1000 l0 -1000 1000 0 1000 0 0 1000 0 1000 -1000 0 -1000 0 0
-1000z m1950 0 l0 -950 -950 0 -950 0 0 950 0 950 950 0 950 0 0 -950z"/>
<path d="M1002 1403 l-2 -403 -397 -3 -398 -2 397 -3 398 -2 3 -412 2 -413 3
412 2 413 393 3 392 2 -392 3 -393 2 -3 403 -2 402 -3 -402z"/>
<path d="M320 1715 c0 -12 13 -15 60 -15 l60 0 0 -270 c0 -233 2 -270 15 -270
13 0 15 37 15 270 l0 270 65 0 c51 0 65 3 65 15 0 13 -22 15 -140 15 -118 0
-140 -2 -140 -15z"/>
<path d="M1289 1703 c25 -84 164 -520 170 -530 5 -10 183 526 181 550 0 4 -6
7 -13 7 -12 0 -21 -25 -118 -328 -23 -72 -45 -130 -48 -126 -3 3 -38 105 -76
227 -52 164 -75 223 -87 225 -14 3 -16 -1 -9 -25z"/>
<path d="M340 555 c0 -247 2 -285 15 -285 13 0 15 23 15 150 l0 150 110 0 c91
0 110 3 110 15 0 12 -19 15 -110 15 l-110 0 0 105 0 105 110 0 c91 0 110 3
110 15 0 13 -21 15 -125 15 l-125 0 0 -285z"/>
<path d="M1310 555 c0 -247 2 -285 15 -285 13 0 15 23 15 150 l0 150 160 0
160 0 0 -150 c0 -127 2 -150 15 -150 13 0 15 38 15 285 0 247 -2 285 -15 285
-12 0 -15 -20 -15 -120 l0 -120 -160 0 -160 0 0 120 c0 100 -2 120 -15 120
-13 0 -15 -38 -15 -285z"/>
</g>
</svg>
